# xmcd
# Track frame offsets:
# 150
# 13773
# 25221
# 36519
# 50142
# 63090
# 74688
# 86586
# 97659
# 108357
# 117480
# 128103
# 135576
# 144099
# 151947
# 165870
# 180168
#
# Disc length: 2552 seconds
# Revision: 0
# Processed by: cddbd v1.5.2PL0 Copyright (c) Steve Scherf et al.
# Submitted via: VisiTrax 2.11.3.279 - For more info visit www.synapsa.com
#
DISCID=d809f611
DTITLE=Black. Al - 40 Years Of Country Music
DYEAR=2014
DGENRE=Country
TTITLE0=Wedding in The Scrub
TTITLE1=Bushland Hop. The
TTITLE2=Hillbilly From Kirribilli
TTITLE3=It's Hard To Say Goodbye
TTITLE4=Along That Gravel Road
TTITLE5=When The Boom Days Are Over
TTITLE6=Traveller's Rest Hotel
TTITLE7=Truckie Mate Of Mine. That
TTITLE8=A Smiling Face Is Missing
TTITLE9=Never Trust A Fishing Hole
TTITLE10=One For The Road
TTITLE11=I'm So Glad You Stayed A While
TTITLE12=Storm. The
TTITLE13=A World That Fell Apart
TTITLE14=Gundy Mick
TTITLE15=Wedding In The Scrubb -ex disc
TTITLE16=Bushland Hop
EXTD=Top Shelf Traditional style Country .
EXTT0=
EXTT1=
EXTT2=
EXTT3=
EXTT4=
EXTT5=
EXTT6=
EXTT7=
EXTT8=
EXTT9=
EXTT10=
EXTT11=
EXTT12=
EXTT13=
EXTT14=
EXTT15=
EXTT16=
PLAYORDER=
